# xmcd
#
# Track frame offsets:
#	150
#	12173
#	26633
#	42508
#	55637
#	76287
#	88199
#	105650
#	119661
#	131122
#	143510
#	155538
#	171927
#	190762
#	201969
#	211412
#	221798
#	237090
#	254313
#	270198
#
# Disc length: 3761 seconds
# Revision: 0
# Processed by: cddbd v1.5.2PL0 Copyright (c) Steve Scherf et al.
# Submitted via: dBpowerAMP V12.0
#
DISCID=1b0eaf14
DTITLE=Various Artist - Best Country Album 1
DYEAR=1
DGENRE=Country
TTITLE0=Dolly Parton - Jolene
TTITLE1=John Denver - Take Me Home
TTITLE2=Billy Jo Spears - Blanket On The Ground
TTITLE3=Lynn Anderson - Rose Garden
TTITLE4=Pussycat - Mississippi
TTITLE5=Charlie Rich - The Most Beautiful Girl
TTITLE6=Kenny Rogers - Ladyt
TTITLE7=Glen Campbell - The Wichita Lineman
TTITLE8=Crystal Gayle - Dont Make My Brown Eyes Blue
TTITLE9=Patsy Cline and The Jordanaires - Crazy
TTITLE10=Tammy Wynette - Stand By Your Man
TTITLE11=Mary McGregor - Torn Between Two Lovers
TTITLE12=Juice Newton - Angel Of The Morning
TTITLE13=Roy Orbison - Blue Bayou
TTITLE14=Elvis - Snowbird
TTITLE15=Kris Kristofferson - Help Me Make It Through The Night
TTITLE16=Don Williams - I Recall A Gypsy Woman
TTITLE17=Dr. Hook and The Medicine Show - Sylvia's Mother
TTITLE18=Willie Nelson - Always On My Mind
TTITLE19=Skeeter Davis - The End Of The World
EXTD=
EXTT0=
EXTT1=
EXTT2=
EXTT3=
EXTT4=
EXTT5=
EXTT6=
EXTT7=
EXTT8=
EXTT9=
EXTT10=
EXTT11=
EXTT12=
EXTT13=
EXTT14=
EXTT15=
EXTT16=
EXTT17=
EXTT18=
EXTT19=
PLAYORDER=
